<?xml version="1.0" encoding="UTF-8"?>
<svg xmlns="http://www.w3.org/2000/svg" xmlns:xlink="http://www.w3.org/1999/xlink" width="1125pt" height="1124.99995pt" viewBox="0 0 1125 1124.99995" version="1.2">
<defs>
<clipPath id="clip1">
  <path d="M 158 468 L 667 468 L 667 1012.5 L 158 1012.5 Z M 158 468 "/>
</clipPath>
<clipPath id="clip2">
  <path d="M 618 112.5 L 671 112.5 L 671 165 L 618 165 Z M 618 112.5 "/>
</clipPath>
</defs>
<g id="surface1">
<g clip-path="url(#clip1)" clip-rule="nonzero">
<path style=" stroke:none;fill-rule:nonzero;fill:rgb(100%,9.408569%,14.898682%);fill-opacity:1;" d="M 666.835938 710.382812 L 604.914062 747.171875 L 488.875 816.167969 L 425.59375 853.730469 L 332.101562 909.34375 L 289.867188 934.386719 L 289.824219 934.429688 L 232.667969 968.453125 L 158.363281 1012.546875 L 182.449219 956.066406 L 193.382812 930.4375 L 218.511719 871.375 L 230.625 842.796875 L 260.792969 772.078125 L 273.582031 741.957031 L 311.28125 653.542969 L 326.476562 617.75 L 356.054688 548.4375 L 369.074219 517.773438 L 390.121094 468.417969 L 666.835938 710.382812 "/>
</g>
<path style=" stroke:none;fill-rule:nonzero;fill:rgb(99.21875%,86.669922%,5.879211%);fill-opacity:1;" d="M 875.957031 630.769531 L 624.964844 628.320312 L 871.738281 582.324219 Z M 875.957031 630.769531 "/>
<path style=" stroke:none;fill-rule:nonzero;fill:rgb(99.21875%,86.669922%,5.879211%);fill-opacity:1;" d="M 914.878906 454.039062 L 579.601562 588.675781 L 893.738281 410.214844 Z M 914.878906 454.039062 "/>
<path style=" stroke:none;fill-rule:nonzero;fill:rgb(99.21875%,86.669922%,5.879211%);fill-opacity:1;" d="M 489.78125 248.269531 L 477.035156 498.945312 L 441.199219 250.492188 Z M 489.78125 248.269531 "/>
<path style=" stroke:none;fill-rule:nonzero;fill:rgb(99.21875%,86.669922%,5.879211%);fill-opacity:1;" d="M 657.445312 203.496094 L 522.355469 538.640625 L 611.175781 188.390625 Z M 657.445312 203.496094 "/>
<path style=" stroke:none;fill-rule:nonzero;fill:rgb(99.21875%,86.669922%,5.879211%);fill-opacity:1;" d="M 847.152344 283.019531 L 547.667969 560.730469 L 811.996094 249.40625 Z M 847.152344 283.019531 "/>
<path style=" stroke:none;fill-rule:nonzero;fill:rgb(40.388489%,68.238831%,84.709167%);fill-opacity:1;" d="M 289.824219 934.429688 L 232.667969 968.453125 L 182.449219 956.066406 L 193.382812 930.4375 L 289.824219 934.429688 "/>
<path style=" stroke:none;fill-rule:nonzero;fill:rgb(40.388489%,68.238831%,84.709167%);fill-opacity:1;" d="M 425.59375 853.730469 L 332.101562 909.34375 L 218.511719 871.375 L 230.625 842.796875 L 425.59375 853.730469 "/>
<path style=" stroke:none;fill-rule:nonzero;fill:rgb(40.388489%,68.238831%,84.709167%);fill-opacity:1;" d="M 604.914062 747.171875 L 488.875 816.167969 L 260.792969 772.078125 L 273.582031 741.957031 L 604.914062 747.171875 "/>
<path style=" stroke:none;fill-rule:nonzero;fill:rgb(40.388489%,68.238831%,84.709167%);fill-opacity:1;" d="M 656.945312 701.765625 L 311.28125 653.542969 L 326.476562 617.75 L 537.050781 596.886719 L 656.945312 701.765625 "/>
<path style=" stroke:none;fill-rule:nonzero;fill:rgb(40.388489%,68.238831%,84.709167%);fill-opacity:1;" d="M 505.523438 569.351562 L 356.054688 548.4375 L 369.074219 517.773438 L 438.703125 510.832031 L 505.523438 569.351562 "/>
<path style=" stroke:none;fill-rule:nonzero;fill:rgb(99.21875%,86.669922%,5.879211%);fill-opacity:1;" d="M 864.753906 370.023438 L 862.667969 350.882812 L 845.746094 341.765625 L 863.300781 333.871094 L 866.75 314.953125 L 879.675781 329.242188 L 898.730469 326.65625 L 889.160156 343.351562 L 897.503906 360.679688 L 878.679688 356.734375 L 864.753906 370.023438 "/>
<path style=" stroke:none;fill-rule:nonzero;fill:rgb(96.078491%,52.549744%,6.669617%);fill-opacity:1;" d="M 815.261719 542.175781 L 817.574219 533.511719 L 811.722656 526.664062 L 820.660156 526.210938 L 825.378906 518.542969 L 828.597656 526.933594 L 837.308594 528.976562 L 830.367188 534.648438 L 831.09375 543.628906 L 823.519531 538.730469 L 815.261719 542.175781 "/>
<path style=" stroke:none;fill-rule:nonzero;fill:rgb(96.078491%,52.549744%,6.669617%);fill-opacity:1;" d="M 658.851562 333.597656 L 651.773438 305.699219 L 624.78125 295.722656 L 649.097656 280.34375 L 650.230469 251.582031 L 672.367188 270 L 700.085938 262.152344 L 689.425781 288.917969 L 705.394531 312.824219 L 676.679688 310.960938 L 658.851562 333.597656 "/>
<path style=" stroke:none;fill-rule:nonzero;fill:rgb(97.24884%,65.098572%,16.859436%);fill-opacity:1;" d="M 816.894531 213.296875 L 814.398438 203.363281 L 804.785156 199.777344 L 813.449219 194.289062 L 813.902344 184.039062 L 821.75 190.613281 L 831.636719 187.847656 L 827.828125 197.375 L 833.542969 205.902344 L 823.292969 205.222656 L 816.894531 213.296875 "/>
<path style=" stroke:none;fill-rule:nonzero;fill:rgb(97.24884%,65.098572%,16.859436%);fill-opacity:1;" d="M 520.085938 345.074219 L 513.144531 328.335938 L 495.40625 324.617188 L 509.109375 312.824219 L 507.203125 294.8125 L 522.671875 304.203125 L 539.230469 296.808594 L 535.011719 314.457031 L 547.167969 327.882812 L 529.113281 329.378906 L 520.085938 345.074219 "/>
<path style=" stroke:none;fill-rule:nonzero;fill:rgb(99.21875%,86.669922%,5.879211%);fill-opacity:1;" d="M 926.582031 546.214844 L 930.757812 530.699219 L 920.277344 518.453125 L 936.335938 517.589844 L 944.726562 503.890625 L 950.535156 518.859375 L 966.183594 522.625 L 953.710938 532.742188 L 954.980469 548.800781 L 941.460938 540.046875 L 926.582031 546.214844 "/>
<g clip-path="url(#clip2)" clip-rule="nonzero">
<path style=" stroke:none;fill-rule:nonzero;fill:rgb(99.21875%,86.669922%,5.879211%);fill-opacity:1;" d="M 654.542969 164.621094 L 640.296875 153.054688 L 622.695312 158.226562 L 629.273438 141.125 L 618.929688 126.019531 L 637.210938 126.96875 L 648.417969 112.453125 L 653.136719 130.191406 L 670.417969 136.316406 L 655.039062 146.296875 L 654.542969 164.621094 "/>
</g>
<path style=" stroke:none;fill-rule:nonzero;fill:rgb(97.24884%,65.098572%,16.859436%);fill-opacity:1;" d="M 533.375 223.820312 L 536.144531 213.386719 L 529.113281 205.222656 L 539.863281 204.632812 L 545.488281 195.46875 L 549.390625 205.492188 L 559.867188 207.988281 L 551.476562 214.792969 L 552.339844 225.542969 L 543.3125 219.691406 L 533.375 223.820312 "/>
<path style=" stroke:none;fill-rule:nonzero;fill:rgb(97.24884%,65.098572%,16.859436%);fill-opacity:1;" d="M 756.742188 440.746094 L 759.511719 430.359375 L 752.523438 422.148438 L 763.277344 421.601562 L 768.902344 412.394531 L 772.757812 422.464844 L 783.234375 424.914062 L 774.890625 431.71875 L 775.75 442.46875 L 766.679688 436.617188 L 756.742188 440.746094 "/>
</g>
</svg>
