<?xml version="1.0" encoding="UTF-8"?>
<svg xmlns="http://www.w3.org/2000/svg" xmlns:xlink="http://www.w3.org/1999/xlink" width="1125pt" height="1124.99995pt" viewBox="0 0 1125 1124.99995" version="1.2">
<defs>
<clipPath id="clip1">
  <path d="M 30.085938 30.085938 L 1095.085938 30.085938 L 1095.085938 1095.085938 L 30.085938 1095.085938 Z M 30.085938 30.085938 "/>
</clipPath>
</defs>
<g id="surface1">
<g clip-path="url(#clip1)" clip-rule="nonzero">
<path style=" stroke:none;fill-rule:nonzero;fill:rgb(74.899292%,10.198975%,14.118958%);fill-opacity:1;" d="M 1095.085938 562.585938 C 1095.085938 571.300781 1094.875 580.011719 1094.445312 588.714844 C 1094.019531 597.421875 1093.378906 606.109375 1092.523438 614.78125 C 1091.667969 623.453125 1090.601562 632.101562 1089.324219 640.722656 C 1088.046875 649.339844 1086.554688 657.925781 1084.855469 666.472656 C 1083.15625 675.019531 1081.246094 683.519531 1079.128906 691.972656 C 1077.011719 700.429688 1074.6875 708.824219 1072.15625 717.164062 C 1069.628906 725.503906 1066.894531 733.777344 1063.960938 741.980469 C 1061.023438 750.1875 1057.886719 758.316406 1054.554688 766.367188 C 1051.21875 774.417969 1047.6875 782.382812 1043.960938 790.261719 C 1040.234375 798.136719 1036.320312 805.921875 1032.210938 813.605469 C 1028.101562 821.292969 1023.808594 828.871094 1019.328125 836.347656 C 1014.847656 843.820312 1010.1875 851.183594 1005.34375 858.429688 C 1000.503906 865.675781 995.488281 872.796875 990.296875 879.796875 C 985.105469 886.796875 979.742188 893.664062 974.214844 900.402344 C 968.6875 907.136719 962.996094 913.734375 957.144531 920.191406 C 951.292969 926.648438 945.285156 932.960938 939.121094 939.121094 C 932.960938 945.285156 926.648438 951.292969 920.191406 957.144531 C 913.734375 962.996094 907.136719 968.6875 900.402344 974.214844 C 893.664062 979.742188 886.796875 985.105469 879.796875 990.296875 C 872.796875 995.488281 865.675781 1000.503906 858.429688 1005.34375 C 851.183594 1010.1875 843.820312 1014.847656 836.347656 1019.328125 C 828.871094 1023.808594 821.292969 1028.101562 813.605469 1032.210938 C 805.921875 1036.320312 798.136719 1040.234375 790.261719 1043.960938 C 782.382812 1047.6875 774.417969 1051.21875 766.367188 1054.554688 C 758.316406 1057.886719 750.1875 1061.023438 741.980469 1063.960938 C 733.777344 1066.894531 725.503906 1069.628906 717.164062 1072.15625 C 708.824219 1074.6875 700.425781 1077.011719 691.972656 1079.128906 C 683.519531 1081.246094 675.019531 1083.15625 666.472656 1084.855469 C 657.925781 1086.554688 649.339844 1088.042969 640.722656 1089.324219 C 632.101562 1090.601562 623.453125 1091.667969 614.78125 1092.523438 C 606.109375 1093.378906 597.421875 1094.019531 588.714844 1094.445312 C 580.011719 1094.875 571.300781 1095.085938 562.585938 1095.085938 C 553.871094 1095.085938 545.164062 1094.875 536.457031 1094.445312 C 527.753906 1094.019531 519.066406 1093.378906 510.394531 1092.523438 C 501.71875 1091.667969 493.074219 1090.601562 484.453125 1089.324219 C 475.832031 1088.046875 467.25 1086.554688 458.703125 1084.855469 C 450.15625 1083.15625 441.652344 1081.246094 433.199219 1079.128906 C 424.746094 1077.011719 416.351562 1074.6875 408.011719 1072.15625 C 399.671875 1069.628906 391.398438 1066.894531 383.191406 1063.960938 C 374.988281 1061.023438 366.859375 1057.886719 358.808594 1054.554688 C 350.757812 1051.21875 342.792969 1047.6875 334.914062 1043.960938 C 327.035156 1040.234375 319.253906 1036.320312 311.570312 1032.210938 C 303.882812 1028.101562 296.300781 1023.808594 288.828125 1019.328125 C 281.351562 1014.847656 273.992188 1010.1875 266.746094 1005.34375 C 259.5 1000.503906 252.378906 995.488281 245.378906 990.296875 C 238.378906 985.105469 231.507812 979.742188 224.773438 974.214844 C 218.035156 968.6875 211.4375 962.996094 204.980469 957.144531 C 198.523438 951.292969 192.214844 945.285156 186.054688 939.121094 C 179.890625 932.960938 173.882812 926.648438 168.03125 920.191406 C 162.179688 913.734375 156.488281 907.136719 150.960938 900.402344 C 145.429688 893.664062 140.070312 886.796875 134.878906 879.796875 C 129.6875 872.796875 124.671875 865.675781 119.828125 858.429688 C 114.988281 851.183594 110.328125 843.820312 105.847656 836.347656 C 101.367188 828.871094 97.070312 821.292969 92.964844 813.605469 C 88.855469 805.921875 84.9375 798.136719 81.214844 790.261719 C 77.488281 782.382812 73.957031 774.417969 70.621094 766.367188 C 67.285156 758.316406 64.152344 750.1875 61.214844 741.980469 C 58.277344 733.777344 55.546875 725.503906 53.015625 717.164062 C 50.488281 708.824219 48.164062 700.429688 46.046875 691.972656 C 43.929688 683.519531 42.019531 675.019531 40.320312 666.472656 C 38.617188 657.925781 37.128906 649.339844 35.851562 640.722656 C 34.570312 632.101562 33.503906 623.453125 32.652344 614.78125 C 31.796875 606.109375 31.15625 597.421875 30.730469 588.714844 C 30.300781 580.011719 30.085938 571.300781 30.085938 562.585938 C 30.085938 553.871094 30.300781 545.164062 30.730469 536.457031 C 31.15625 527.753906 31.796875 519.066406 32.652344 510.394531 C 33.503906 501.71875 34.570312 493.074219 35.851562 484.453125 C 37.128906 475.832031 38.617188 467.25 40.320312 458.703125 C 42.019531 450.15625 43.929688 441.652344 46.046875 433.199219 C 48.164062 424.746094 50.488281 416.351562 53.015625 408.011719 C 55.546875 399.671875 58.277344 391.398438 61.214844 383.195312 C 64.152344 374.988281 67.285156 366.859375 70.621094 358.808594 C 73.957031 350.757812 77.488281 342.792969 81.214844 334.914062 C 84.9375 327.035156 88.855469 319.253906 92.964844 311.570312 C 97.070312 303.882812 101.367188 296.300781 105.847656 288.828125 C 110.328125 281.351562 114.988281 273.992188 119.828125 266.746094 C 124.671875 259.5 129.6875 252.378906 134.878906 245.378906 C 140.070312 238.378906 145.429688 231.507812 150.960938 224.773438 C 156.488281 218.035156 162.179688 211.4375 168.03125 204.980469 C 173.882812 198.523438 179.890625 192.214844 186.054688 186.054688 C 192.214844 179.890625 198.523438 173.882812 204.980469 168.03125 C 211.4375 162.179688 218.035156 156.488281 224.773438 150.960938 C 231.507812 145.429688 238.378906 140.070312 245.378906 134.878906 C 252.378906 129.6875 259.5 124.671875 266.746094 119.828125 C 273.992188 114.988281 281.351562 110.328125 288.828125 105.847656 C 296.300781 101.367188 303.882812 97.074219 311.570312 92.964844 C 319.253906 88.855469 327.035156 84.9375 334.914062 81.214844 C 342.792969 77.488281 350.757812 73.957031 358.808594 70.621094 C 366.859375 67.285156 374.988281 64.152344 383.191406 61.214844 C 391.398438 58.277344 399.671875 55.546875 408.011719 53.015625 C 416.351562 50.488281 424.746094 48.164062 433.199219 46.046875 C 441.652344 43.929688 450.15625 42.019531 458.703125 40.320312 C 467.25 38.617188 475.832031 37.128906 484.453125 35.851562 C 493.074219 34.570312 501.71875 33.503906 510.394531 32.652344 C 519.066406 31.796875 527.753906 31.15625 536.457031 30.730469 C 545.164062 30.300781 553.871094 30.085938 562.585938 30.085938 C 571.300781 30.085938 580.011719 30.300781 588.714844 30.730469 C 597.421875 31.15625 606.109375 31.796875 614.78125 32.652344 C 623.453125 33.503906 632.101562 34.570312 640.722656 35.851562 C 649.339844 37.128906 657.925781 38.617188 666.472656 40.320312 C 675.019531 42.019531 683.519531 43.929688 691.972656 46.046875 C 700.425781 48.164062 708.824219 50.488281 717.164062 53.015625 C 725.503906 55.546875 733.777344 58.277344 741.980469 61.214844 C 750.1875 64.152344 758.316406 67.285156 766.367188 70.621094 C 774.417969 73.957031 782.382812 77.488281 790.261719 81.214844 C 798.136719 84.9375 805.921875 88.855469 813.605469 92.964844 C 821.292969 97.074219 828.871094 101.367188 836.347656 105.847656 C 843.820312 110.328125 851.183594 114.988281 858.429688 119.828125 C 865.675781 124.671875 872.796875 129.6875 879.796875 134.878906 C 886.796875 140.070312 893.664062 145.429688 900.402344 150.960938 C 907.136719 156.488281 913.734375 162.179688 920.191406 168.03125 C 926.648438 173.882812 932.960938 179.890625 939.121094 186.054688 C 945.285156 192.214844 951.292969 198.523438 957.144531 204.980469 C 962.996094 211.4375 968.6875 218.035156 974.214844 224.773438 C 979.742188 231.507812 985.105469 238.378906 990.296875 245.378906 C 995.488281 252.378906 1000.503906 259.5 1005.34375 266.746094 C 1010.1875 273.992188 1014.847656 281.351562 1019.328125 288.828125 C 1023.808594 296.300781 1028.101562 303.882812 1032.210938 311.570312 C 1036.320312 319.253906 1040.234375 327.035156 1043.960938 334.914062 C 1047.6875 342.792969 1051.21875 350.757812 1054.554688 358.808594 C 1057.886719 366.859375 1061.023438 374.988281 1063.960938 383.191406 C 1066.894531 391.398438 1069.628906 399.671875 1072.15625 408.011719 C 1074.6875 416.351562 1077.011719 424.746094 1079.128906 433.199219 C 1081.246094 441.652344 1083.15625 450.15625 1084.855469 458.703125 C 1086.554688 467.25 1088.042969 475.832031 1089.324219 484.453125 C 1090.601562 493.074219 1091.667969 501.71875 1092.523438 510.394531 C 1093.378906 519.066406 1094.019531 527.753906 1094.445312 536.457031 C 1094.875 545.164062 1095.085938 553.871094 1095.085938 562.585938 Z M 1095.085938 562.585938 "/>
</g>
<path style=" stroke:none;fill-rule:nonzero;fill:rgb(100%,100%,100%);fill-opacity:1;" d="M 868.765625 372.101562 L 753.019531 256.421875 L 562.585938 446.886719 L 372.113281 256.421875 L 256.421875 372.101562 L 446.886719 562.585938 L 256.421875 753.042969 L 372.113281 868.765625 L 562.585938 678.300781 L 753.019531 868.765625 L 868.765625 753.042969 L 678.300781 562.585938 Z M 868.765625 372.101562 "/>
</g>
</svg>
