<?xml version="1.0" encoding="UTF-8"?>
<svg xmlns="http://www.w3.org/2000/svg" xmlns:xlink="http://www.w3.org/1999/xlink" width="1125pt" height="1124.99995pt" viewBox="0 0 1125 1124.99995" version="1.2">
<defs>
<clipPath id="clip1">
  <path d="M 29.898438 29.898438 L 1094.898438 29.898438 L 1094.898438 1094.898438 L 29.898438 1094.898438 Z M 29.898438 29.898438 "/>
</clipPath>
</defs>
<g id="surface1">
<g clip-path="url(#clip1)" clip-rule="nonzero">
<path style=" stroke:none;fill-rule:nonzero;fill:rgb(41.958618%,67.83905%,11.369324%);fill-opacity:1;" d="M 1094.898438 562.398438 C 1094.898438 571.113281 1094.6875 579.824219 1094.257812 588.527344 C 1093.832031 597.234375 1093.191406 605.921875 1092.335938 614.59375 C 1091.480469 623.265625 1090.414062 631.914062 1089.136719 640.535156 C 1087.859375 649.15625 1086.367188 657.738281 1084.667969 666.285156 C 1082.96875 674.832031 1081.058594 683.332031 1078.941406 691.789062 C 1076.824219 700.242188 1074.5 708.636719 1071.972656 716.976562 C 1069.441406 725.316406 1066.707031 733.589844 1063.773438 741.792969 C 1060.835938 750 1057.699219 758.128906 1054.367188 766.179688 C 1051.03125 774.230469 1047.5 782.195312 1043.773438 790.074219 C 1040.046875 797.953125 1036.132812 805.734375 1032.023438 813.417969 C 1027.914062 821.105469 1023.621094 828.683594 1019.140625 836.160156 C 1014.660156 843.632812 1010 850.996094 1005.15625 858.242188 C 1000.316406 865.488281 995.300781 872.609375 990.109375 879.609375 C 984.917969 886.609375 979.558594 893.476562 974.027344 900.214844 C 968.5 906.953125 962.808594 913.546875 956.957031 920.003906 C 951.105469 926.460938 945.097656 932.773438 938.933594 938.933594 C 932.773438 945.097656 926.460938 951.105469 920.003906 956.957031 C 913.546875 962.808594 906.953125 968.5 900.214844 974.027344 C 893.476562 979.558594 886.609375 984.917969 879.609375 990.109375 C 872.609375 995.300781 865.488281 1000.316406 858.242188 1005.15625 C 850.996094 1010 843.632812 1014.660156 836.160156 1019.140625 C 828.683594 1023.621094 821.105469 1027.914062 813.417969 1032.023438 C 805.734375 1036.132812 797.953125 1040.046875 790.074219 1043.773438 C 782.195312 1047.5 774.230469 1051.03125 766.179688 1054.367188 C 758.128906 1057.699219 750 1060.835938 741.792969 1063.773438 C 733.589844 1066.707031 725.316406 1069.441406 716.976562 1071.972656 C 708.636719 1074.5 700.242188 1076.824219 691.789062 1078.941406 C 683.332031 1081.058594 674.832031 1082.96875 666.285156 1084.667969 C 657.738281 1086.367188 649.15625 1087.859375 640.535156 1089.136719 C 631.914062 1090.414062 623.265625 1091.480469 614.59375 1092.335938 C 605.921875 1093.191406 597.234375 1093.832031 588.527344 1094.257812 C 579.824219 1094.6875 571.113281 1094.898438 562.398438 1094.898438 C 553.6875 1094.898438 544.976562 1094.6875 536.273438 1094.257812 C 527.566406 1093.832031 518.878906 1093.191406 510.207031 1092.335938 C 501.535156 1091.480469 492.886719 1090.414062 484.265625 1089.136719 C 475.644531 1087.859375 467.0625 1086.367188 458.515625 1084.667969 C 449.96875 1082.96875 441.46875 1081.058594 433.011719 1078.941406 C 424.558594 1076.824219 416.164062 1074.5 407.824219 1071.972656 C 399.484375 1069.441406 391.210938 1066.707031 383.007812 1063.773438 C 374.800781 1060.835938 366.671875 1057.699219 358.621094 1054.367188 C 350.570312 1051.03125 342.605469 1047.5 334.726562 1043.773438 C 326.847656 1040.046875 319.066406 1036.132812 311.382812 1032.023438 C 303.695312 1027.914062 296.117188 1023.621094 288.640625 1019.140625 C 281.164062 1014.660156 273.804688 1010 266.558594 1005.15625 C 259.3125 1000.316406 252.191406 995.300781 245.191406 990.109375 C 238.191406 984.917969 231.324219 979.558594 224.585938 974.027344 C 217.847656 968.5 211.253906 962.808594 204.796875 956.957031 C 198.339844 951.105469 192.027344 945.097656 185.867188 938.933594 C 179.703125 932.773438 173.695312 926.460938 167.84375 920.003906 C 161.992188 913.546875 156.300781 906.953125 150.773438 900.214844 C 145.242188 893.476562 139.882812 886.609375 134.691406 879.609375 C 129.5 872.609375 124.484375 865.488281 119.644531 858.242188 C 114.800781 850.996094 110.140625 843.632812 105.660156 836.160156 C 101.179688 828.683594 96.886719 821.105469 92.777344 813.417969 C 88.667969 805.734375 84.753906 797.953125 81.027344 790.074219 C 77.300781 782.195312 73.769531 774.230469 70.433594 766.179688 C 67.097656 758.128906 63.964844 750 61.027344 741.792969 C 58.09375 733.589844 55.359375 725.316406 52.828125 716.976562 C 50.300781 708.636719 47.976562 700.242188 45.859375 691.789062 C 43.742188 683.332031 41.832031 674.832031 40.132812 666.285156 C 38.433594 657.738281 36.941406 649.15625 35.664062 640.535156 C 34.386719 631.914062 33.320312 623.265625 32.464844 614.59375 C 31.609375 605.921875 30.96875 597.234375 30.542969 588.527344 C 30.113281 579.824219 29.898438 571.113281 29.898438 562.398438 C 29.898438 553.683594 30.113281 544.976562 30.542969 536.273438 C 30.96875 527.566406 31.609375 518.878906 32.464844 510.207031 C 33.320312 501.535156 34.386719 492.886719 35.664062 484.265625 C 36.941406 475.644531 38.433594 467.0625 40.132812 458.515625 C 41.832031 449.96875 43.742188 441.46875 45.859375 433.011719 C 47.976562 424.558594 50.300781 416.164062 52.828125 407.824219 C 55.359375 399.484375 58.09375 391.210938 61.027344 383.007812 C 63.964844 374.800781 67.097656 366.671875 70.433594 358.621094 C 73.769531 350.570312 77.300781 342.605469 81.027344 334.726562 C 84.753906 326.847656 88.667969 319.066406 92.777344 311.382812 C 96.886719 303.695312 101.179688 296.117188 105.660156 288.640625 C 110.140625 281.164062 114.800781 273.804688 119.644531 266.558594 C 124.484375 259.3125 129.5 252.191406 134.691406 245.191406 C 139.882812 238.191406 145.242188 231.324219 150.773438 224.585938 C 156.300781 217.847656 161.992188 211.253906 167.84375 204.796875 C 173.695312 198.339844 179.703125 192.027344 185.867188 185.867188 C 192.027344 179.703125 198.339844 173.695312 204.796875 167.84375 C 211.253906 161.992188 217.847656 156.300781 224.585938 150.773438 C 231.324219 145.242188 238.191406 139.882812 245.191406 134.691406 C 252.191406 129.5 259.3125 124.484375 266.558594 119.644531 C 273.804688 114.800781 281.164062 110.140625 288.640625 105.660156 C 296.117188 101.179688 303.695312 96.886719 311.382812 92.777344 C 319.066406 88.667969 326.847656 84.753906 334.726562 81.027344 C 342.605469 77.300781 350.570312 73.769531 358.621094 70.433594 C 366.671875 67.097656 374.800781 63.964844 383.007812 61.027344 C 391.210938 58.09375 399.484375 55.359375 407.824219 52.828125 C 416.164062 50.300781 424.558594 47.976562 433.011719 45.859375 C 441.46875 43.742188 449.96875 41.832031 458.515625 40.132812 C 467.0625 38.433594 475.644531 36.941406 484.265625 35.664062 C 492.886719 34.386719 501.535156 33.320312 510.207031 32.464844 C 518.878906 31.609375 527.566406 30.96875 536.273438 30.542969 C 544.976562 30.113281 553.6875 29.898438 562.398438 29.898438 C 571.113281 29.898438 579.824219 30.113281 588.527344 30.542969 C 597.234375 30.96875 605.921875 31.609375 614.59375 32.464844 C 623.265625 33.320312 631.914062 34.386719 640.535156 35.664062 C 649.15625 36.941406 657.738281 38.433594 666.285156 40.132812 C 674.832031 41.832031 683.332031 43.742188 691.789062 45.859375 C 700.242188 47.976562 708.636719 50.300781 716.976562 52.828125 C 725.316406 55.359375 733.589844 58.09375 741.792969 61.027344 C 750 63.964844 758.128906 67.097656 766.179688 70.433594 C 774.230469 73.769531 782.195312 77.300781 790.074219 81.027344 C 797.953125 84.753906 805.734375 88.667969 813.417969 92.777344 C 821.105469 96.886719 828.683594 101.179688 836.160156 105.660156 C 843.632812 110.140625 850.996094 114.800781 858.242188 119.644531 C 865.488281 124.484375 872.609375 129.5 879.609375 134.691406 C 886.609375 139.882812 893.476562 145.242188 900.214844 150.773438 C 906.953125 156.300781 913.546875 161.992188 920.003906 167.84375 C 926.460938 173.695312 932.773438 179.703125 938.933594 185.867188 C 945.097656 192.027344 951.105469 198.339844 956.957031 204.796875 C 962.808594 211.253906 968.5 217.847656 974.027344 224.585938 C 979.558594 231.324219 984.917969 238.191406 990.109375 245.191406 C 995.300781 252.191406 1000.316406 259.3125 1005.15625 266.558594 C 1010 273.804688 1014.660156 281.164062 1019.140625 288.640625 C 1023.621094 296.117188 1027.914062 303.695312 1032.023438 311.382812 C 1036.132812 319.066406 1040.046875 326.847656 1043.773438 334.726562 C 1047.5 342.605469 1051.03125 350.570312 1054.367188 358.621094 C 1057.699219 366.671875 1060.835938 374.800781 1063.773438 383.007812 C 1066.707031 391.210938 1069.441406 399.484375 1071.972656 407.824219 C 1074.5 416.164062 1076.824219 424.558594 1078.941406 433.011719 C 1081.058594 441.46875 1082.96875 449.96875 1084.667969 458.515625 C 1086.367188 467.0625 1087.859375 475.644531 1089.136719 484.265625 C 1090.414062 492.886719 1091.480469 501.535156 1092.335938 510.207031 C 1093.191406 518.878906 1093.832031 527.566406 1094.257812 536.273438 C 1094.6875 544.976562 1094.898438 553.683594 1094.898438 562.398438 Z M 1094.898438 562.398438 "/>
</g>
<path style=" stroke:none;fill-rule:nonzero;fill:rgb(100%,100%,100%);fill-opacity:1;" d="M 430.339844 929.613281 L 139.945312 639.238281 L 255.648438 523.527344 L 430.339844 698.1875 L 869.078125 259.40625 L 984.820312 375.097656 Z M 430.339844 929.613281 "/>
</g>
</svg>
